<svg width="107" height="79" viewBox="0 0 107 79" fill="none" xmlns="http://www.w3.org/2000/svg">
<g clip-path="url(#clip0_1130_38)">
<path d="M0 39.9153C0.182183 25.317 4.91244 12.9894 14.438 2.54347C15.0236 1.90114 15.6027 1.25232 16.2663 0.694338C17.3009 -0.175077 18.4786 -0.2724 19.5066 0.648921C20.6583 1.68703 20.6322 2.93276 19.6823 4.11361C19.2138 4.70403 18.6412 5.21011 18.1207 5.76809C0.468471 24.6746 0.520524 54.4294 18.2248 73.31C18.3745 73.4657 18.5306 73.6149 18.6803 73.7706C19.9555 75.0553 21.2894 76.4892 19.5782 78.1891C17.8735 79.8825 16.4876 78.6043 15.2058 77.2678C9.42147 71.2273 5.19222 64.2525 2.60912 56.3175C0.82633 50.8285 0.0780784 45.1643 0 39.9153Z" fill="#040405"/>
<path d="M86.4653 3.16623C87.8968 -0.551491 89.3477 -0.862923 91.7421 1.63502C99.8558 10.0891 104.996 20.0939 106.473 31.6947C108.692 49.096 103.935 64.4276 91.7812 77.2936C89.3998 79.811 87.9553 79.5191 86.5174 75.8987C96.3488 66.0172 102.094 53.9881 102.114 39.6492C102.133 25.3039 96.6285 13.1775 86.4653 3.16623Z" fill="#040404"/>
<path d="M75.3198 65.1283C90.0441 48.1877 90.1873 31.0135 75.3784 13.9755C75.8382 12.7082 76.6081 11.7631 77.6882 11.1402C79.0155 11.1597 79.8223 12.0615 80.6552 12.9115C94.5792 27.0362 94.5597 51.9443 80.6161 66.1015C78.1046 68.6514 76.9334 68.4827 75.3198 65.1283Z" fill="#040505"/>
<path d="M29.0582 10.9001C29.7479 11.2051 30.314 11.3219 30.6849 11.6592C31.1403 12.0745 31.4331 12.6779 31.6934 13.0542C31.6608 14.7282 30.5938 15.5716 29.7544 16.5319C17.7564 30.2219 17.7824 48.7846 29.8325 62.5525C30.5417 63.3635 31.3746 64.0837 31.6218 65.2061C30.4441 68.2037 29.0778 68.7292 27.0347 66.7049C12.0046 51.7886 12.2714 26.4328 27.4902 11.8798C27.8675 11.523 28.3946 11.3154 29.0647 10.9066L29.0582 10.9001Z" fill="#040505"/>
<path d="M69.5483 35.2697C67.271 31.9348 65.1824 30.9032 62.4236 31.5844C59.847 32.2203 58.1748 34.5041 57.8235 37.9882C57.5893 40.2851 57.7845 42.5429 59.0337 44.5673C60.4521 46.8576 62.5798 47.6751 65.1759 47.1625C67.8175 46.637 69.288 45.0409 69.4702 42.2834C67.9346 41.4529 66.3536 42.2445 64.8375 41.667C63.9917 40.9404 64.278 40.0255 64.6619 38.9809C67.4076 38.4424 70.1859 38.8382 72.8861 38.7603C74.4607 44.7035 71.7735 49.4918 66.4186 50.6467C60.2439 51.9767 54.7329 48.4277 53.9196 42.4651C53.6723 40.6614 53.6983 38.7863 53.861 36.9696C54.2774 32.2138 57.5372 28.6647 61.8706 28.0549C67.4597 27.2698 71.2009 29.4044 73.1854 34.6663C72.1769 35.7563 70.8496 35.0491 69.5548 35.2697H69.5483Z" fill="#080809"/>
<path d="M35.3892 44.3661H38.4928C41.0173 47.5972 43.5679 48.3823 45.7085 46.5851C47.4132 45.1512 47.6735 42.1666 46.2551 40.4019C44.5764 38.3192 41.9738 38.5657 38.8897 41.0961C37.9332 41.2843 36.9768 41.3491 35.6039 40.856C35.9813 36.8658 36.3651 32.8302 36.762 28.6518H49.4953C50.1069 29.6834 50.0809 30.5658 49.3262 31.7466H40.217C39.3386 33.6606 39.6184 35.367 39.6054 37.0929C45.637 34.9713 49.4238 36.2884 50.7901 40.9144C52.0394 45.1512 49.671 49.4853 45.4873 50.6013C40.5684 51.9119 36.3977 49.4853 35.3892 44.3661Z" fill="#090A0A"/>
</g>
<defs>
<clipPath id="clip0_1130_38">
<rect width="107" height="79" fill="white"/>
</clipPath>
</defs>
</svg>
