<svg width="95" height="44" viewBox="0 0 95 44" fill="none" xmlns="http://www.w3.org/2000/svg">
<g clip-path="url(#clip0_1060_145)">
<path d="M16.9348 43.5415H66.8813C72.3144 43.5415 76.8896 43.0308 80.1304 39.775C83.3712 36.5189 83.8478 31.9865 83.8478 26.5281V17.3671C83.8478 11.9088 83.3712 7.37613 80.1304 4.12031C76.8896 0.864479 72.3144 0.35376 66.8813 0.35376H16.8712C11.5334 0.35376 6.9582 0.864479 3.71738 4.12031C0.476587 7.37613 0 11.9407 0 17.2713V26.5281C0 31.9865 0.476587 36.5189 3.71738 39.775C6.9582 43.0308 11.5334 43.5415 16.9348 43.5415ZM16.0769 38.4025C12.8043 38.4025 9.3729 37.9555 7.43478 36.0404C5.52842 34.0931 5.11538 30.6777 5.11538 27.39V16.5691C5.11538 13.2175 5.52842 9.80206 7.43478 7.85496C9.3729 5.90782 12.8361 5.49287 16.1722 5.49287H67.7708C71.0433 5.49287 74.475 5.93975 76.3813 7.85496C78.3193 9.80206 78.7325 13.1856 78.7325 16.4733V27.39C78.7325 30.6777 78.3193 34.0931 76.3813 36.0404C74.475 37.9555 71.0433 38.4025 67.7708 38.4025H16.0769ZM88.1687 30.1988C90.6788 30.0392 94.0467 26.8154 94.0467 21.9317C94.0467 17.0798 90.6788 13.8559 88.1687 13.6963V30.1988Z" fill="black" fill-opacity="0.85"/>
<path d="M14.3927 34.6997H69.4546C71.6469 34.6997 72.9177 34.3804 73.8075 33.4867C74.6653 32.5928 75.0148 31.3161 75.0148 29.1136V14.7816C75.0148 12.5791 74.6653 11.3023 73.8075 10.4085C72.9177 9.51476 71.6152 9.19556 69.4546 9.19556H14.488C12.2004 9.19556 10.8977 9.51476 10.0399 10.4085C9.15025 11.3023 8.83252 12.611 8.83252 14.8454V29.1136C8.83252 31.3161 9.15025 32.5928 10.0399 33.4867C10.9295 34.3804 12.2322 34.6997 14.3927 34.6997Z" fill="black" fill-opacity="0.85"/>
</g>
<defs>
<clipPath id="clip0_1060_145">
<rect width="95" height="43.1878" fill="white" transform="translate(0 0.35376)"/>
</clipPath>
</defs>
</svg>
