<svg width="75" height="80" viewBox="0 0 75 80" fill="none" xmlns="http://www.w3.org/2000/svg">
<g clip-path="url(#clip0_283_44)">
<path d="M0.0115852 39.7689C0.0115852 34.901 0.0349606 30.033 -0.000102543 25.1708C-0.0293218 21.2975 1.60111 18.4715 5.00808 16.605C14.2121 11.5674 23.4221 6.54726 32.5794 1.42768C35.8461 -0.397812 38.9492 -0.50898 42.2334 1.31652C51.4842 6.4595 60.7701 11.5498 70.0502 16.646C73.4513 18.5124 75.0116 21.3736 74.9941 25.2469C74.9531 35.0765 74.9473 44.9119 74.9941 54.7415C75.0116 58.7377 73.3636 61.6047 69.8515 63.5238C60.7234 68.4971 51.6011 73.4762 42.5373 78.5666C39.0544 80.5208 35.8402 80.4798 32.369 78.5256C23.2292 73.3826 14.0076 68.3801 4.80939 63.3307C1.62449 61.5696 0.0291167 58.8664 0.017429 55.2447C-0.0059464 50.0842 0.017429 44.9295 0.0115852 39.7689ZM6.86642 23.4565C6.59176 24.5038 7.1703 24.9895 7.49756 25.5394C16.9529 41.3077 26.4141 57.0643 35.887 72.8209C37.5291 75.5592 37.5759 75.5592 39.2122 72.8268C48.6792 57.0643 58.1345 41.3019 67.5782 25.5277C67.9405 24.9192 68.7002 24.3927 68.2561 23.4565H6.86642ZM64.0135 18.9513C64.0777 18.7582 64.1362 18.5593 64.2005 18.3662C55.873 13.7849 47.5572 9.18604 39.218 4.62815C37.5583 3.72125 36.0448 4.42337 34.5429 5.26005C27.3199 9.2621 20.0677 13.2232 12.8447 17.2369C12.1376 17.629 11.1617 17.7577 10.8227 18.9571H64.0135V18.9513ZM29.3185 71.9258C29.5289 71.7444 29.7451 71.563 29.9555 71.3758C21.6163 57.4681 13.283 43.5604 4.9438 29.6527C4.4646 38.6163 4.44707 47.4337 4.48798 56.2452C4.49382 57.5968 5.32365 58.5973 6.50411 59.2526C14.107 63.477 21.7098 67.7014 29.3185 71.9199V71.9258ZM70.5527 30.0973C70.3657 30.0447 70.1787 29.992 69.9917 29.9335C61.635 43.8295 53.2841 57.7255 44.8748 71.7034C45.2255 71.7444 45.5586 71.8906 45.7514 71.7853C53.4069 67.5785 61.0565 63.36 68.6885 59.1122C69.9742 58.3984 70.5527 57.1931 70.5527 55.7128C70.5527 47.1762 70.5527 38.6339 70.5527 30.0973Z" fill="#1C1C1C"/>
</g>
<defs>
<clipPath id="clip0_283_44">
<rect width="75" height="80" fill="white"/>
</clipPath>
</defs>
</svg>
