<svg width="70" height="70" viewBox="0 0 70 70" fill="none" xmlns="http://www.w3.org/2000/svg">
<g clip-path="url(#clip0_1130_28)">
<path d="M14.6446 4.13361C13.054 4.13361 11.4635 4.11765 9.87295 4.13361C5.98968 4.17617 4.17571 5.94239 4.14379 9.76744C4.11187 13.1243 4.12251 16.4812 4.14379 19.8381C4.15443 21.2852 3.91505 22.6471 2.16492 22.7003C0.420105 22.7535 0.0370965 21.4288 0.0370965 19.9658C0.0370965 16.3429 -0.063975 12.7147 0.0743334 9.09713C0.271157 3.87293 3.99484 0.223437 9.27184 0.0638385C12.804 -0.0425606 16.3415 0.0372387 19.8737 0.0319188C21.3153 0.0319188 22.6771 0.319196 22.709 2.05882C22.7356 3.80377 21.4217 4.14957 19.9482 4.13361C18.1821 4.11233 16.416 4.13361 14.6446 4.13361Z" fill="#080809"/>
<path d="M55.3023 4.12297C53.3607 4.12297 51.4137 4.14425 49.4721 4.11765C48.2645 4.10169 47.3762 3.52182 47.2804 2.27695C47.174 0.872479 48.0837 0.0904456 49.387 0.0798057C53.6213 0.047886 57.8876 -0.159592 62.0901 0.250044C66.6276 0.691601 69.697 4.28789 69.9098 8.89497C70.08 12.5977 69.9683 16.3163 69.963 20.0243C69.963 21.498 69.5268 22.7801 67.7873 22.7109C66.2127 22.6524 65.8563 21.4235 65.8616 20.0616C65.8669 16.6142 65.8882 13.1722 65.8563 9.72489C65.8191 6.01156 64.0211 4.20809 60.3399 4.14425C58.6643 4.11765 56.9833 4.14425 55.3023 4.14425V4.13361V4.12297Z" fill="#070809"/>
<path d="M4.13841 55.5935C4.13841 57.2747 4.10117 58.9504 4.14904 60.6262C4.2448 63.9618 6.10132 65.8025 9.48456 65.8504C12.9316 65.8983 16.3734 65.8717 19.8204 65.8611C21.2461 65.8611 22.6611 66.0632 22.7036 67.8188C22.7462 69.734 21.2567 69.9787 19.73 69.9734C16.2829 69.9681 12.8359 70.0372 9.39412 69.9415C3.97882 69.7925 0.239173 66.1217 0.0583083 60.7539C-0.0587218 57.2268 0.0317106 53.689 0.026391 50.1512C0.026391 48.7202 0.308327 47.3263 2.0425 47.2944C3.98414 47.2625 4.15436 48.768 4.13841 50.2895C4.11713 52.0558 4.13841 53.822 4.13841 55.5882V55.5935Z" fill="#070809"/>
<path d="M69.952 55.5031C69.952 57.2693 70.0212 59.0409 69.9414 60.8018C69.6967 66.0685 66.0741 69.7446 60.8184 69.9308C57.2011 70.0585 53.5731 69.9681 49.9558 69.9628C48.4717 69.9628 47.2056 69.4946 47.2961 67.7603C47.3812 66.2069 48.5887 65.8504 49.9665 65.8558C53.4136 65.877 56.8553 65.8877 60.3024 65.8558C63.9995 65.8185 65.8188 64.0044 65.856 60.3124C65.8932 56.865 65.8773 53.423 65.8613 49.9757C65.856 48.4755 66.2762 47.2306 68.0104 47.2944C69.5744 47.3529 69.9574 48.5765 69.9627 49.9384C69.9627 51.7951 69.9627 53.6464 69.9627 55.5031C69.9627 55.5031 69.9574 55.5031 69.952 55.5031Z" fill="#080809"/>
<path d="M34.4124 52.0824C30.1355 52.2633 26.5607 50.5555 23.3424 47.869C22.1721 46.8954 21.571 45.7569 22.6828 44.4908C23.7626 43.2619 24.8638 44.0067 25.9224 44.7994C31.9122 49.3107 36.6679 49.316 42.7056 44.7887C43.8971 43.895 45.0515 43.3257 46.1314 44.7302C47.1314 46.0336 46.275 47.0284 45.2643 47.869C42.1257 50.4757 38.6467 52.2207 34.4177 52.0771L34.4124 52.0824Z" fill="#070809"/>
<path d="M36.955 30.5525C36.955 32.4092 37.0826 34.2765 36.9284 36.1172C36.673 39.0964 34.4441 40.9371 31.5184 40.7615C30.2789 40.687 29.2203 40.3093 29.1512 38.8144C29.0873 37.511 29.8533 36.7503 31.0556 36.7503C32.8217 36.7503 33.0398 35.8033 33.0078 34.3723C32.9493 31.3665 32.9759 28.3607 33.0078 25.3602C33.0238 24.0569 33.2472 22.7907 34.9442 22.7481C36.6358 22.7056 36.955 23.9345 36.9922 25.2538C37.0454 27.0201 37.0028 28.7863 37.0028 30.5578C36.9869 30.5578 36.9709 30.5578 36.955 30.5578V30.5525Z" fill="#101111"/>
<path d="M23.3637 27.6319C23.3637 28.6001 23.3903 29.5737 23.3531 30.5419C23.3158 31.574 22.7147 32.1858 21.7253 32.3028C20.6029 32.4411 19.6826 31.8932 19.6081 30.7972C19.4645 28.6054 19.4645 26.3923 19.5975 24.2005C19.6666 23.0673 20.6029 22.6098 21.72 22.7215C22.7573 22.8226 23.3105 23.4504 23.3531 24.4559C23.401 25.5145 23.3637 26.5732 23.3637 27.6319Z" fill="#101011"/>
<path d="M50.5305 27.5095C50.5305 28.3926 50.5678 29.2757 50.5199 30.1535C50.4507 31.4782 49.8124 32.3879 48.3974 32.3134C47.1207 32.2496 46.5994 31.3771 46.61 30.1429C46.626 28.3767 46.61 26.6157 46.6153 24.8495C46.6153 23.6366 47.0622 22.7801 48.4134 22.7215C49.8815 22.663 50.4667 23.5302 50.5199 24.8602C50.5571 25.7433 50.5252 26.6264 50.5252 27.5042L50.5305 27.5095Z" fill="#0F0F10"/>
</g>
<defs>
<clipPath id="clip0_1130_28">
<rect width="70" height="70" fill="white"/>
</clipPath>
</defs>
</svg>
