<svg width="64" height="65" viewBox="0 0 64 65" fill="none" xmlns="http://www.w3.org/2000/svg">
<g clip-path="url(#clip0_1060_124)">
<path d="M51.6885 2.36487H12.3112C6.68014 2.36487 2.11523 6.94971 2.11523 12.6054V52.1546C2.11523 57.8103 6.68014 62.3952 12.3112 62.3952H51.6885C57.3196 62.3952 61.8845 57.8103 61.8845 52.1546V12.6054C61.8845 6.94971 57.3196 2.36487 51.6885 2.36487Z" stroke="black" stroke-width="4" stroke-miterlimit="10"/>
<path d="M24.115 35.8059H19.2497L18.192 39.184H15.22L20.0324 25.2679H23.4381L28.2611 39.184H25.1727L24.115 35.8059ZM19.8737 33.6282H23.491L21.7141 27.9237H21.6506L19.8737 33.6282Z" fill="black"/>
<path d="M32.1427 27.9343H32.0898L28.5571 30.3882V27.7643L32.1427 25.2679H35.0195V39.184H32.1532V27.9343H32.1427Z" fill="black"/>
<path d="M38.2243 35.2004H40.9002C41.0589 36.3796 42.0954 37.1869 43.4492 37.1869C44.9617 37.1869 46.0088 36.1246 46.0088 34.6161C46.0088 33.1077 44.9617 31.9923 43.4598 31.9923C42.4127 31.9923 41.5137 32.4703 41.0271 33.2777H38.4358L39.1127 25.2679H47.9232V27.5837H41.3867L41.0694 31.3974H41.1223C41.6935 30.4626 42.7934 29.8783 44.2107 29.8783C46.8655 29.8783 48.7587 31.8329 48.7587 34.5418C48.7587 37.495 46.5905 39.5027 43.4069 39.5027C40.4348 39.5027 38.2877 37.7287 38.2031 35.211L38.2243 35.2004Z" fill="black"/>
</g>
<defs>
<clipPath id="clip0_1060_124">
<rect width="64" height="64.2795" fill="white" transform="translate(0 0.240234)"/>
</clipPath>
</defs>
</svg>
