<svg width="102" height="50" viewBox="0 0 102 50" fill="none" xmlns="http://www.w3.org/2000/svg">
<g clip-path="url(#clip0_1060_133)">
<path d="M24.334 49.5196C37.7733 49.5196 48.668 38.5563 48.668 25.0325C48.668 11.5087 37.7733 0.54541 24.334 0.54541C10.8947 0.54541 0 11.5087 0 25.0325C0 38.5563 10.8947 49.5196 24.334 49.5196Z" fill="black"/>
<path d="M16.4839 25.0806C16.4839 27.088 16.1366 28.6159 15.4422 29.6573C14.7477 30.6987 13.7264 31.2263 12.3783 31.2263C9.59355 31.2263 8.20459 29.164 8.20459 25.0463C8.20459 23.0183 8.55183 21.4698 9.24631 20.4147C9.94079 19.3596 10.9621 18.832 12.3102 18.832C15.0949 18.832 16.4839 20.9149 16.4839 25.0806ZM11.4387 20.6819C11.1868 20.8121 10.9825 21.0176 10.8327 21.2849C10.6829 21.5521 10.5536 21.8261 10.4651 22.0933C10.3765 22.3605 10.3085 22.7031 10.2676 23.1142C10.2268 23.5253 10.1995 23.8678 10.1927 24.1351C10.1791 24.4023 10.1723 24.7448 10.1723 25.1559C10.1723 26.7043 10.3493 27.828 10.6965 28.5268C11.0438 29.2257 11.6021 29.5751 12.3647 29.5751C12.6642 29.5751 12.9298 29.5134 13.1613 29.397C13.3928 29.2736 13.5834 29.1298 13.7332 28.9585C13.883 28.7872 14.0055 28.5542 14.1077 28.2733C14.2098 27.9856 14.2847 27.7252 14.3392 27.4923C14.3936 27.2593 14.4277 26.9647 14.4617 26.6153C14.4889 26.2659 14.5094 25.9986 14.5162 25.8068C14.5162 25.615 14.523 25.3752 14.523 25.0737C14.523 24.6832 14.523 24.3817 14.5162 24.1693C14.5162 23.9569 14.4889 23.6349 14.4549 23.2033C14.4209 22.7716 14.3528 22.429 14.2575 22.1618C14.1621 21.8946 14.0328 21.6206 13.883 21.3328C13.7264 21.045 13.5221 20.8327 13.2566 20.6888C12.9979 20.5449 12.6847 20.4764 12.3306 20.4764C11.9766 20.4764 11.6906 20.5449 11.4387 20.6751V20.6819Z" fill="white"/>
<path d="M20.644 30.9865H18.3154V28.6638H20.644V30.9865Z" fill="white"/>
<path d="M30.0127 20.7093H25.2398L24.6951 23.8062C25.233 23.2307 25.982 22.9429 26.9556 22.9429C28.0586 22.9429 28.9573 23.306 29.6382 24.0254C30.3191 24.7517 30.6663 25.704 30.6663 26.8825C30.6663 28.1568 30.2646 29.1914 29.468 29.9999C28.6714 30.8015 27.6433 31.2057 26.3905 31.2057C25.2058 31.2057 24.2458 30.8769 23.5104 30.2191C22.7751 29.5614 22.387 28.6707 22.3394 27.5608H24.273C24.3207 28.1774 24.5385 28.6707 24.9402 29.0407C25.342 29.4107 25.839 29.5888 26.445 29.5888C27.1531 29.5888 27.6977 29.3627 28.0858 28.9105C28.4739 28.4583 28.6646 27.8211 28.6646 26.9921C28.6646 26.1631 28.4671 25.567 28.0654 25.1217C27.6637 24.6763 27.1122 24.4571 26.4041 24.4571C25.5462 24.4571 24.879 24.8202 24.4024 25.5396L22.6934 25.4848L23.8373 18.9965H30.0127V20.7025V20.7093Z" fill="white"/>
<path d="M31.6942 22.1071H34.0568L35.9019 24.8408L37.8356 22.1071H40.0961L37.1003 26.2179L40.4705 30.9865H38.1284L35.8883 27.7184L33.7164 30.9865H31.4219L34.7581 26.3207L31.6942 22.1071Z" fill="white"/>
<path d="M77.6592 49.2798C91.0985 49.2798 101.993 38.3166 101.993 24.7928C101.993 11.2689 91.0985 0.305664 77.6592 0.305664C64.2199 0.305664 53.3252 11.2689 53.3252 24.7928C53.3252 38.3166 64.2199 49.2798 77.6592 49.2798Z" fill="black"/>
<path d="M74.0644 30.9385H71.9469V22.4906H68.9307V21.0244C71.0345 21.0244 72.2124 20.2365 72.4712 18.6538H74.0644V30.9385Z" fill="white"/>
<path d="M77.4959 21.9357H79.8858L81.7581 24.7105L83.719 21.9357H86.0067L82.9701 26.1082L86.388 30.9385H84.0118L81.7377 27.6224L79.5385 30.9385H77.2168L80.6007 26.211L77.4959 21.9357Z" fill="white"/>
</g>
<defs>
<clipPath id="clip0_1060_133">
<rect width="102" height="49.214" fill="white" transform="translate(0 0.305664)"/>
</clipPath>
</defs>
</svg>
