<svg width="134" height="49" viewBox="0 0 134 49" fill="none" xmlns="http://www.w3.org/2000/svg">
<path d="M10.1875 47H0.75V1.90625H10.1875V47Z" fill="black"/>
<path d="M17.6875 1.90625H36.0312C45.2812 1.90625 51.6562 8.0625 51.6562 17.3438C51.6562 26.5938 45.0625 32.7812 35.5625 32.7812H27.125V47H17.6875V1.90625ZM27.125 9.375V25.4062H33.5C38.9062 25.4062 42.0625 22.5312 42.0625 17.375C42.0625 12.25 38.9375 9.375 33.5312 9.375H27.125Z" fill="black"/>
<path d="M74.875 48.0312C68.4062 48.0312 63.0625 45.0938 59.9062 39.7188C57.4062 35.9062 56.125 30.8125 56.125 24.8125C56.125 9.875 63.375 0.875 75.0312 0.875C83.625 0.875 90.3438 5.96875 91.5938 13.3438H82.3125C81.4062 10.3438 78.5 8.34375 74.9688 8.34375C68.6875 8.34375 64.875 14.375 65.0938 24.5625H65.2812C67.0938 20.1562 71.5312 17.2188 77.2812 17.2188C85.8438 17.2188 92.1875 23.5312 92.1875 32.0938C92.1875 41.375 84.9688 48.0312 74.875 48.0312ZM74.7812 40.5C79.375 40.5 83 36.9062 83 32.375C83 27.7188 79.5312 24.3125 74.8125 24.3125C70.125 24.3125 66.5625 27.7188 66.5625 32.2812C66.5625 36.875 70.1562 40.5 74.7812 40.5Z" fill="black"/>
<path d="M115.562 48C104.625 48 97.2812 42.5938 97.2812 34.7812C97.2812 28.8438 101.594 24.25 107.875 23.2188V23.0312C102.625 21.8125 99.0938 17.7812 99.0938 12.8125C99.0938 5.9375 105.906 0.90625 115.562 0.90625C125.25 0.90625 132 5.90625 132 12.8438C132 17.75 128.5 21.7812 123.25 23.0312V23.2188C129.562 24.2812 133.844 28.875 133.844 34.8125C133.844 42.625 126.406 48 115.562 48ZM115.562 41.125C120.531 41.125 123.969 38.1562 123.969 34.0938C123.969 30.0312 120.531 27.0625 115.562 27.0625C110.594 27.0625 107.125 30.0312 107.125 34.0938C107.125 38.1562 110.594 41.125 115.562 41.125ZM115.562 20.1875C119.719 20.1875 122.688 17.5625 122.688 13.9688C122.688 10.3438 119.719 7.71875 115.562 7.71875C111.375 7.71875 108.438 10.375 108.438 13.9688C108.438 17.5625 111.375 20.1875 115.562 20.1875Z" fill="black"/>
</svg>
