<svg width="79" height="30" viewBox="0 0 79 30" fill="none" xmlns="http://www.w3.org/2000/svg">
<g clip-path="url(#clip0_1130_24)">
<path d="M39.5028 0.0120744C47.6752 0.0120744 55.8476 -0.0119978 64.02 0.0180925C72.287 0.0542008 78.8639 6.49352 78.9998 14.6239C79.1417 22.8747 72.6297 29.8436 64.3096 29.9037C47.7697 30.0301 31.2299 30.0301 14.6901 29.9037C6.36994 29.8436 -0.141989 22.8807 -0.000168392 14.6239C0.141652 6.49352 6.71859 0.0542008 14.9855 0.0180925C23.158 -0.0180158 31.3304 0.0120744 39.5028 0.0120744ZM39.5146 26.3411V26.329C47.7757 26.329 56.0426 26.4674 64.2978 26.2809C70.7092 26.1364 75.3893 21.1776 75.4248 14.985C75.4602 8.90676 70.8688 3.67707 64.7173 3.61087C47.8997 3.43033 31.0763 3.46644 14.2587 3.60485C9.22408 3.64698 5.16447 7.28188 3.97672 12.0422C2.1035 19.5527 7.30359 26.2026 15.3165 26.317C23.3825 26.4313 31.4486 26.3411 39.5146 26.3411Z" fill="black"/>
</g>
<defs>
<clipPath id="clip0_1130_24">
<rect width="79" height="30" fill="white"/>
</clipPath>
</defs>
</svg>
