<svg width="83" height="41" viewBox="0 0 83 41" fill="none" xmlns="http://www.w3.org/2000/svg">
<g clip-path="url(#clip0_1130_11)">
<path d="M12.25 40.902C19.8932 40.902 24.3517 36.3627 24.3517 29.468C24.3517 23.8247 22.196 21.1011 15.7531 17.8133L13.3524 16.611C9.55525 14.6481 8.25689 13.1023 8.25689 10.3297C8.25689 7.92521 9.84924 6.33036 12.25 6.33036C14.8467 6.33036 16.2431 8.04789 16.586 11.0904C16.635 11.6302 16.929 11.9001 17.419 11.9001H22.9308C23.4208 11.9001 23.7639 11.5811 23.7394 11.0168C23.3964 4.2693 19.7707 0 12.25 0C4.87623 0 0.564675 4.53921 0.564675 11.2131C0.564675 16.8319 2.86743 19.948 8.82033 23.0885L11.2211 24.3644C15.1652 26.45 16.6595 27.7505 16.6595 30.3758C16.6595 33.0749 15.1897 34.5715 12.397 34.5715C9.50625 34.5715 7.81593 32.7803 7.47297 29.7624C7.42397 29.2226 7.20349 28.9282 6.68905 28.9282H0.809652C0.319701 28.9282 -0.0232643 29.2473 0.00123315 29.8116C0.417691 36.927 4.28829 40.902 12.25 40.902ZM41.1571 40.902C50.2211 40.902 55.0471 34.0073 55.0471 20.5123C55.0471 7.09098 50.2211 0.0736086 41.1571 0.0736086C31.995 0.0736086 27.2424 7.09098 27.2424 20.5123C27.2424 34.0073 31.995 40.902 41.1571 40.902ZM41.1571 34.2281C37.1394 34.2281 35.1552 29.9833 35.1552 20.5123C35.1552 11.0904 37.1394 6.74747 41.1571 6.74747C45.0522 6.74747 47.0609 11.0904 47.0609 20.5123C47.0609 29.9833 45.0522 34.2281 41.1571 34.2281ZM70.1621 40.902C77.8052 40.902 82.2639 36.3627 82.2639 29.468C82.2639 23.8247 80.1081 21.0766 73.6653 17.8133L71.2644 16.611C67.4428 14.6481 66.1689 13.1023 66.1689 10.3297C66.1689 7.92521 67.7614 6.33036 70.1621 6.33036C72.7589 6.33036 74.1306 8.04789 74.4737 11.0904C74.547 11.6302 74.8412 11.9001 75.331 11.9001H80.8431C81.3329 11.9001 81.6759 11.5811 81.6514 11.0168C81.2595 4.2693 77.6827 0 70.1621 0C62.7882 0 58.4767 4.53921 58.4767 11.2131C58.4767 16.8319 60.7795 19.9234 66.7325 23.0885L69.1332 24.3644C73.0772 26.4745 74.5717 27.7505 74.5717 30.3758C74.5717 33.0749 73.1017 34.5715 70.2846 34.5715C67.4184 34.5715 65.728 32.7803 65.385 29.7624C65.3116 29.2226 65.1155 28.9282 64.6011 28.9282H58.7217C58.2319 28.9282 57.8888 29.2473 57.9133 29.8116C58.3297 36.927 62.2004 40.902 70.1621 40.902Z" fill="black" fill-opacity="0.85"/>
</g>
<defs>
<clipPath id="clip0_1130_11">
<rect width="83" height="41" fill="white"/>
</clipPath>
</defs>
</svg>
