<svg width="72" height="79" viewBox="0 0 72 79" fill="none" xmlns="http://www.w3.org/2000/svg">
<g clip-path="url(#clip0_418_26)">
<path d="M32.4068 18.7178C31.576 15.0063 30.4176 11.223 28.8162 8.21439C25.8005 2.60957 19.8044 0.721268 16.5798 0.721268C14.7243 0.721268 12.6598 1.13032 10.6238 1.86828C7.10499 3.14885 2.64173 6.38953 1.05869 8.93231C1.04365 8.944 1.03027 8.9607 1.01189 8.99743C0.903229 9.20446 0.802931 9.69865 0.727707 10.9892C0.644126 12.2464 0.582275 13.9294 0.582275 15.7125C0.582275 17.4956 0.644126 19.1786 0.727707 20.4408C0.816304 21.8215 0.919945 22.2957 1.03696 22.461C3.11146 26.2827 10.5954 30.7555 15.7674 30.7555C19.5453 30.7555 21.909 29.1594 22.7665 28.4749C22.9019 28.3713 22.9905 28.3129 23.0574 28.3196C23.146 28.3346 23.2095 28.4181 23.2095 28.5934L23.2463 75.8111C23.2463 76.4639 23.4519 77.1434 23.838 77.7077H33.5235C33.9213 77.1434 34.132 76.4472 34.132 75.7944L34.1353 35.8962C34.1353 32.0745 33.6789 24.4228 32.4052 18.7211L32.4068 18.7178ZM1.60699 22.1922C1.36293 22.1922 1.15397 19.2771 1.15397 15.6841C1.15397 12.0912 1.36293 9.17273 1.60699 9.17273C1.87278 9.17273 2.08842 12.0828 2.08842 15.6841C2.08842 19.2854 1.87445 22.1922 1.60699 22.1922ZM8.41221 17.4789C7.52122 17.4789 6.78905 16.746 6.78905 15.8377C6.78905 14.9295 7.52122 14.1915 8.41221 14.1915C9.30319 14.1915 10.0621 14.9362 10.0621 15.8377C10.0621 16.7393 9.32659 17.4789 8.41221 17.4789ZM28.0422 9.61851C27.9987 9.82554 27.8466 9.96078 27.6226 10.0292C27.183 10.1862 26.6096 10.1094 26.1499 9.89233C25.9242 9.7838 25.6384 9.63187 25.3074 9.34804C25.1837 9.23618 25.0199 9.08758 24.8444 8.90226C24.5468 8.57001 24.1623 8.08917 23.604 7.39963C22.7398 6.32775 22.2015 5.73505 21.822 5.26923C21.68 5.09225 21.578 4.94366 21.4994 4.80342C21.4693 4.73329 21.4359 4.6615 21.4142 4.60306C21.3891 4.47284 21.3557 4.34929 21.369 4.24744C21.3841 3.96528 21.5847 3.75658 21.9407 3.69648C22.5275 3.59964 23.9032 4.01704 25.2773 5.51967C26.7851 7.14919 28.191 8.95235 28.0405 9.61517L28.0422 9.61851Z" fill="#6E6E73"/>
<path d="M23.8464 77.6994C24.3763 78.4574 25.2272 79.0017 26.3422 79.0017H31.0294C32.1394 79.0017 33.0003 78.4574 33.5235 77.6994H23.8464Z" fill="#BCBCBB"/>
<path d="M71.5399 10.9892C71.4647 9.69865 71.3644 9.20446 71.2557 8.9991C71.2373 8.9607 71.224 8.94567 71.2089 8.93231C69.6259 6.38953 65.1626 3.15052 61.6455 1.86828C59.6078 1.13199 57.5433 0.721268 55.6895 0.721268C52.4649 0.721268 46.4688 2.6079 43.4531 8.21439C41.8517 11.223 40.6933 15.0063 39.8625 18.7178C38.5887 24.4194 38.1323 32.0695 38.1323 35.8929L38.1357 75.7911C38.1357 76.4439 38.3463 77.1401 38.7441 77.7044H48.4296C48.8157 77.1401 49.0213 76.4606 49.0213 75.8077L49.0581 28.5901C49.0581 28.4148 49.1216 28.3313 49.2102 28.3163C49.2771 28.3096 49.3657 28.368 49.5011 28.4715C50.3587 29.1577 52.7223 30.7522 56.5002 30.7522C61.6723 30.7522 69.1562 26.2794 71.2307 22.4577C71.3477 22.294 71.4513 21.8182 71.5399 20.4375C71.6235 19.1752 71.6853 17.4973 71.6853 15.7092C71.6853 13.921 71.6235 12.2448 71.5399 10.9859V10.9892ZM50.8518 4.6064C50.83 4.66484 50.7966 4.73663 50.7665 4.80676C50.6896 4.947 50.5877 5.09559 50.4439 5.27257C50.0661 5.73672 49.5262 6.33109 48.6619 7.40297C48.1036 8.09084 47.7191 8.57335 47.4216 8.9056C47.2461 9.09092 47.0839 9.23952 46.9586 9.35138C46.6276 9.63354 46.3434 9.78547 46.116 9.89567C45.658 10.1127 45.083 10.1895 44.6433 10.0326C44.4193 9.96412 44.2655 9.82888 44.2238 9.62185C44.0733 8.95903 45.4792 7.15587 46.987 5.52635C48.361 4.02205 49.7368 3.60632 50.3235 3.70316C50.6796 3.76326 50.8802 3.97029 50.8952 4.25412C50.9069 4.35597 50.8752 4.47952 50.8501 4.60974L50.8518 4.6064ZM63.8571 17.4789C62.9427 17.4789 62.2072 16.746 62.2072 15.8377C62.2072 14.9295 62.9427 14.1915 63.8571 14.1915C64.7715 14.1915 65.4802 14.9362 65.4802 15.8377C65.4802 16.7393 64.7481 17.4789 63.8571 17.4789ZM70.6623 22.1922C70.3965 22.1922 70.1826 19.2771 70.1826 15.6841C70.1826 12.0912 70.3965 9.17273 70.6623 9.17273C70.9064 9.17273 71.1153 12.0828 71.1153 15.6841C71.1153 19.2854 70.9064 22.1922 70.6623 22.1922Z" fill="#6E6E73"/>
<path d="M48.4229 77.6994C47.893 78.4574 47.0422 79.0017 45.9272 79.0017H41.2399C40.13 79.0017 39.2691 78.4574 38.7458 77.6994H48.4229Z" fill="#BCBCBB"/>
</g>
<defs>
<clipPath id="clip0_418_26">
<rect width="71.3052" height="79" fill="white" transform="translate(0.380127)"/>
</clipPath>
</defs>
</svg>
