<svg width="22" height="19" viewBox="0 0 22 19" fill="none" xmlns="http://www.w3.org/2000/svg">
<path d="M1.65404 18.146H14.6252C15.6602 18.146 16.2792 17.6623 16.2792 16.8596C16.2792 14.3639 13.1549 10.9205 8.13476 10.9205C3.12429 10.9205 0 14.3639 0 16.8596C0 17.6623 0.619054 18.146 1.65404 18.146ZM8.14443 9.18907C10.2144 9.18907 12.0135 7.33192 12.0135 4.91374C12.0135 2.52458 10.2144 0.754471 8.14443 0.754471C6.07447 0.754471 4.27534 2.56327 4.27534 4.93308C4.27534 7.33192 6.0648 9.18907 8.14443 9.18907Z" fill="#6E6E73" fill-opacity="0.85"/>
<path d="M17.5755 6.95468C18.0591 6.95468 18.3493 6.64516 18.3493 6.25825C18.3493 6.22923 18.3493 6.18087 18.3493 6.14218C18.3493 5.60051 18.6685 5.26196 19.3456 4.81702C20.2838 4.19796 20.9513 3.62727 20.9513 2.47622C20.9513 0.870547 19.5197 0 17.8753 0C16.2116 0 15.1186 0.793163 14.8575 1.67338C14.8091 1.83781 14.78 1.99258 14.78 2.15702C14.78 2.59228 15.1186 2.82444 15.4378 2.82444C15.7667 2.82444 15.9795 2.66967 16.1536 2.43752L16.3277 2.20538C16.6662 1.63469 17.1692 1.31549 17.8173 1.31549C18.6975 1.31549 19.2683 1.81847 19.2683 2.5536C19.2683 3.21134 18.862 3.53054 18.0107 4.12058C17.324 4.60421 16.8017 5.11687 16.8017 6.0648C16.8017 6.10348 16.8017 6.14218 16.8017 6.18087C16.8017 6.69352 17.0822 6.95468 17.5755 6.95468ZM17.5561 9.83718C18.1075 9.83718 18.6008 9.3922 18.6008 8.83118C18.6008 8.27015 18.1171 7.82523 17.5561 7.82523C16.9854 7.82523 16.5115 8.27981 16.5115 8.83118C16.5115 9.38255 16.9951 9.83718 17.5561 9.83718Z" fill="#6E6E73" fill-opacity="0.85"/>
</svg>
