<svg width="25" height="24" viewBox="0 0 25 24" fill="none" xmlns="http://www.w3.org/2000/svg">
<path d="M23.9062 11.9531C23.9062 18.4805 18.4922 23.9062 11.9531 23.9062C5.42578 23.9062 0 18.4805 0 11.9531C0 5.41406 5.41406 0 11.9414 0C18.4805 0 23.9062 5.41406 23.9062 11.9531ZM15.2461 7.33594L11.9531 10.6055L8.68359 7.34766C8.49609 7.17188 8.28516 7.07812 8.01562 7.07812C7.47656 7.07812 7.05469 7.48828 7.05469 8.03906C7.05469 8.29688 7.14844 8.53125 7.33594 8.71875L10.582 11.9648L7.33594 15.2227C7.14844 15.3984 7.05469 15.6445 7.05469 15.9023C7.05469 16.4414 7.47656 16.875 8.01562 16.875C8.28516 16.875 8.53125 16.7812 8.71875 16.5938L11.9531 13.3359L15.1992 16.5938C15.375 16.7812 15.6211 16.875 15.8906 16.875C16.4414 16.875 16.875 16.4414 16.875 15.9023C16.875 15.6328 16.7812 15.3867 16.582 15.2109L13.3359 11.9648L16.5938 8.70703C16.8047 8.49609 16.8867 8.28516 16.8867 8.01562C16.8867 7.47656 16.4531 7.05469 15.9141 7.05469C15.6562 7.05469 15.4453 7.13672 15.2461 7.33594Z" fill="black" fill-opacity="0.85"/>
</svg>
