<svg width="141" height="128" viewBox="0 0 141 128" fill="none" xmlns="http://www.w3.org/2000/svg">
<g clip-path="url(#clip0_391_50)">
<path d="M50.3542 0.486359H9.26587C4.38209 0.486359 0.425659 4.33924 0.425659 9.09265V119.565C0.425659 124.318 4.38589 128.171 9.26967 128.171H50.358C55.2418 128.171 59.202 124.318 59.202 119.565V9.09265C59.202 4.33924 55.2418 0.486359 50.358 0.486359H50.3542Z" fill="#6E6E73"/>
<path d="M26.8855 4.47223H11.8009C7.60289 4.47223 4.19971 7.87458 4.19971 12.0716V28.4558C4.19971 32.6529 7.60289 36.0552 11.8009 36.0552H26.8855C31.0836 36.0552 34.4867 32.6529 34.4867 28.4558V12.0716C34.4867 7.87458 31.0836 4.47223 26.8855 4.47223Z" fill="#F5F5F7"/>
<path d="M12.5306 19.177C15.8177 19.177 18.4824 16.4943 18.4824 13.1849C18.4824 9.87557 15.8177 7.19281 12.5306 7.19281C9.24355 7.19281 6.57886 9.87557 6.57886 13.1849C6.57886 16.4943 9.24355 19.177 12.5306 19.177Z" fill="#6E6E73"/>
<path d="M25.9619 13.4699C24.3543 13.4699 23.0469 12.1552 23.0469 10.5365C23.0469 8.91787 24.3543 7.60318 25.9619 7.60318C27.5696 7.60318 28.877 8.91787 28.877 10.5365C28.877 12.1552 27.5696 13.4699 25.9619 13.4699ZM25.9619 8.36312C24.7723 8.36312 23.807 9.33584 23.807 10.5327C23.807 11.7296 24.7723 12.7024 25.9619 12.7024C27.1515 12.7024 28.1169 11.7296 28.1169 10.5327C28.1169 9.33584 27.1515 8.36312 25.9619 8.36312Z" fill="#6E6E73"/>
<path d="M25.7035 26.4496C28.9905 26.4496 31.6552 23.7668 31.6552 20.4575C31.6552 17.1481 28.9905 14.4654 25.7035 14.4654C22.4164 14.4654 19.7517 17.1481 19.7517 20.4575C19.7517 23.7668 22.4164 26.4496 25.7035 26.4496Z" fill="#6E6E73"/>
<path d="M12.5306 33.6538C15.8177 33.6538 18.4824 30.9711 18.4824 27.6617C18.4824 24.3524 15.8177 21.6696 12.5306 21.6696C9.24355 21.6696 6.57886 24.3524 6.57886 27.6617C6.57886 30.9711 9.24355 33.6538 12.5306 33.6538Z" fill="#6E6E73"/>
<path d="M26.0721 32.9851C27.2707 32.9851 28.2423 32.0069 28.2423 30.8002C28.2423 29.5936 27.2707 28.6154 26.0721 28.6154C24.8736 28.6154 23.902 29.5936 23.902 30.8002C23.902 32.0069 24.8736 32.9851 26.0721 32.9851Z" fill="#1D1D1F"/>
<path d="M96.9914 128.999C92.1988 128.999 88.3032 125.12 88.3032 120.355V31.8186C88.3032 27.05 92.2026 23.1743 96.9914 23.1743H132.618C137.411 23.1743 141.306 27.0538 141.306 31.8186V120.355C141.306 125.124 137.407 128.999 132.618 128.999H96.9914Z" fill="#6E6E73"/>
<path d="M132.618 24.1888C136.852 24.1888 140.284 27.6047 140.284 31.8186V120.355C140.284 124.569 136.852 127.985 132.618 127.985H96.9914C92.7576 127.985 89.3256 124.569 89.3256 120.355V31.8186C89.3256 27.6047 92.7576 24.1888 96.9914 24.1888H132.618ZM132.618 22.156H96.9914C91.6364 22.156 87.2809 26.4914 87.2809 31.8186V120.355C87.2809 125.682 91.6364 130.018 96.9914 130.018H132.618C137.973 130.018 142.329 125.682 142.329 120.355V31.8186C142.329 26.4914 137.973 22.156 132.618 22.156Z" fill="#F5F5F7"/>
<path d="M118.739 25.3933H111.369C111.073 25.3933 110.833 25.6332 110.833 25.9291V25.9823C110.833 26.2781 111.073 26.518 111.369 26.518H118.739C119.034 26.518 119.274 26.2781 119.274 25.9823V25.9291C119.274 25.6332 119.034 25.3933 118.739 25.3933Z" fill="#1D1D1F"/>
<path d="M132.356 26.7992H126.792C126.792 26.7992 126.792 26.8106 126.792 26.8144C126.051 26.8942 125.473 27.5097 125.473 28.2697V28.8092C125.473 30.2873 124.268 31.4842 122.779 31.4842H107.139C105.653 31.4842 104.444 30.2873 104.444 28.8092V28.4179C104.444 27.5249 103.715 26.7992 102.814 26.7992H97.4247C94.369 26.7992 91.8872 29.25 91.8872 32.2745V120.332C91.8872 123.125 94.1752 125.39 96.999 125.39H132.774C135.598 125.39 137.609 123.098 137.609 120.306V32.2745C137.609 29.25 135.404 26.7992 132.348 26.7992H132.356Z" fill="#F5F5F7"/>
<path d="M106.896 29.3982C107.431 29.3982 107.865 28.9644 107.865 28.4292C107.865 27.8941 107.431 27.4603 106.896 27.4603C106.361 27.4603 105.927 27.8941 105.927 28.4292C105.927 28.9644 106.361 29.3982 106.896 29.3982Z" fill="#F5F5F7"/>
<path d="M88.4743 10.8405H48.7389C43.3864 10.8405 39.0474 15.1785 39.0474 20.5297V119.751C39.0474 125.102 43.3864 129.44 48.7389 129.44H88.4743C93.8267 129.44 98.1658 125.102 98.1658 119.751V20.5297C98.1658 15.1785 93.8267 10.8405 88.4743 10.8405Z" fill="#6E6E73"/>
<path d="M88.4743 11.9804C93.1985 11.9804 97.0257 15.8067 97.0257 20.5297V119.751C97.0257 124.474 93.1985 128.3 88.4743 128.3H48.739C44.0148 128.3 40.1876 124.474 40.1876 119.751V20.5297C40.1876 15.8067 44.0148 11.9804 48.739 11.9804H88.4743ZM88.4743 9.70059H48.739C42.7682 9.70059 37.9072 14.5604 37.9072 20.5297V119.751C37.9072 125.72 42.7682 130.58 48.739 130.58H88.4743C94.4451 130.58 99.306 125.72 99.306 119.751V20.5297C99.306 14.5604 94.4451 9.70059 88.4743 9.70059Z" fill="#F5F5F7"/>
<path d="M72.964 13.3331H64.8117C64.4633 13.3331 64.1808 13.6155 64.1808 13.9638C64.1808 14.3122 64.4633 14.5946 64.8117 14.5946H72.964C73.3124 14.5946 73.5949 14.3122 73.5949 13.9638C73.5949 13.6155 73.3124 13.3331 72.964 13.3331Z" fill="#1D1D1F"/>
<path d="M88.1854 14.5946H80.797C79.9799 14.5946 79.3186 15.2557 79.3186 16.0727V16.616C79.3186 18.1017 78.1138 19.31 76.624 19.31H60.9845C59.4984 19.31 58.2898 18.1055 58.2898 16.616V16.2246C58.2898 15.3241 57.5601 14.5946 56.6594 14.5946H49.2292C45.82 14.5946 43.057 17.3569 43.057 20.7653V120.028C43.057 123.174 45.611 125.728 48.7579 125.728H88.6567C91.8036 125.728 94.3576 123.174 94.3576 120.028V20.7653C94.3576 17.3569 91.5946 14.5946 88.1854 14.5946Z" fill="#F5F5F7"/>
<path d="M60.574 17.3C61.1093 17.3 61.5432 16.8662 61.5432 16.331C61.5432 15.7959 61.1093 15.3621 60.574 15.3621C60.0388 15.3621 59.6049 15.7959 59.6049 16.331C59.6049 16.8662 60.0388 17.3 60.574 17.3Z" fill="#F5F5F7"/>
</g>
<defs>
<clipPath id="clip0_391_50">
<rect width="140.288" height="128" fill="white"/>
</clipPath>
</defs>
</svg>
