<svg width="93" height="128" viewBox="0 0 93 128" fill="none" xmlns="http://www.w3.org/2000/svg">
<g clip-path="url(#clip0_395_93)">
<path d="M51.6937 2.2532H8.89435C3.98214 2.2532 0 6.23396 0 11.1445V119.113C0 124.023 3.98214 128.004 8.89435 128.004H51.6937C56.6059 128.004 60.588 124.023 60.588 119.113V11.1445C60.588 6.23396 56.6059 2.2532 51.6937 2.2532Z" fill="#6E6E73"/>
<path d="M19.8983 5.76031H8.74231C5.78028 5.76031 3.37909 8.16068 3.37909 11.1217V23.634C3.37909 26.595 5.78028 28.9954 8.74231 28.9954H19.8983C22.8603 28.9954 25.2615 26.595 25.2615 23.634V11.1217C25.2615 8.16068 22.8603 5.76031 19.8983 5.76031Z" fill="#F5F5F7"/>
<path d="M8.93613 16.0423C11.5224 16.0423 13.619 13.9464 13.619 11.3611C13.619 8.77569 11.5224 6.67984 8.93613 6.67984C6.34987 6.67984 4.2533 8.77569 4.2533 11.3611C4.2533 13.9464 6.34987 16.0423 8.93613 16.0423Z" fill="#6E6E73"/>
<path d="M8.93613 28.1595C11.5224 28.1595 13.619 26.0636 13.619 23.4782C13.619 20.8929 11.5224 18.797 8.93613 18.797C6.34987 18.797 4.2533 20.8929 4.2533 23.4782C4.2533 26.0636 6.34987 28.1595 8.93613 28.1595Z" fill="#6E6E73"/>
<path d="M19.6474 22.0572C22.2336 22.0572 24.3302 19.9613 24.3302 17.3759C24.3302 14.7906 22.2336 12.6947 19.6474 12.6947C17.0611 12.6947 14.9645 14.7906 14.9645 17.3759C14.9645 19.9613 17.0611 22.0572 19.6474 22.0572Z" fill="#6E6E73"/>
<path d="M19.7576 10.9241C20.8828 10.9241 21.795 10.0123 21.795 8.88746C21.795 7.76266 20.8828 6.85083 19.7576 6.85083C18.6324 6.85083 17.7203 7.76266 17.7203 8.88746C17.7203 10.0123 18.6324 10.9241 19.7576 10.9241Z" stroke="#6E6E73" stroke-miterlimit="10"/>
<path d="M19.8299 26.7612C20.2224 26.7612 20.5407 26.443 20.5407 26.0506C20.5407 25.6582 20.2224 25.3401 19.8299 25.3401C19.4373 25.3401 19.1191 25.6582 19.1191 26.0506C19.1191 26.443 19.4373 26.7612 19.8299 26.7612Z" fill="#1D1D1F"/>
<path d="M81.8318 7.62595H42.518C36.256 7.62595 31.1796 12.7006 31.1796 18.9604V117.805C31.1796 124.065 36.256 129.14 42.518 129.14H81.8318C88.0939 129.14 93.1702 124.065 93.1702 117.805V18.9604C93.1702 12.7006 88.0939 7.62595 81.8318 7.62595Z" fill="#6E6E73"/>
<path d="M81.828 8.76586C87.4611 8.76586 92.0261 13.3293 92.0261 18.9604V117.805C92.0261 123.437 87.4611 128 81.828 128H42.5142C36.8811 128 32.3161 123.437 32.3161 117.805V18.9604C32.3161 13.3293 36.8811 8.76586 42.5142 8.76586H81.828ZM81.828 6.48605H42.5142C35.6344 6.48605 30.0355 12.083 30.0355 18.9604V117.805C30.0355 124.683 35.6344 130.28 42.5142 130.28H81.828C88.7078 130.28 94.3067 124.683 94.3067 117.805V18.9604C94.3067 12.083 88.7078 6.48605 81.828 6.48605Z" fill="#F5F5F7"/>
<path d="M81.6342 12.8581H76.9248C76.4915 12.8581 76.1342 13.2153 76.1342 13.6485V14.6896C76.1342 15.9207 75.1269 16.9314 73.8916 16.9314H50.618C49.3827 16.9314 48.3754 15.9245 48.3754 14.6896V13.6485C48.3754 13.2153 48.0181 12.8581 47.5848 12.8581H42.5903C39.2378 12.8581 36.4935 15.6015 36.4935 18.9528V117.551C36.4935 120.902 39.2378 123.646 42.5903 123.646H81.6342C84.9867 123.646 87.731 120.902 87.731 117.551V18.9528C87.731 15.6015 84.9867 12.8581 81.6342 12.8581Z" fill="#F5F5F7"/>
<path d="M65.096 13.2305H59.2083C58.8997 13.2305 58.6495 13.4806 58.6495 13.7891C58.6495 14.0975 58.8997 14.3476 59.2083 14.3476H65.096C65.4046 14.3476 65.6548 14.0975 65.6548 13.7891C65.6548 13.4806 65.4046 13.2305 65.096 13.2305Z" fill="#1D1D1F"/>
<path d="M68.0076 14.7352C68.5303 14.7352 68.9541 14.3116 68.9541 13.789C68.9541 13.2665 68.5303 12.8429 68.0076 12.8429C67.4849 12.8429 67.0612 13.2665 67.0612 13.789C67.0612 14.3116 67.4849 14.7352 68.0076 14.7352Z" fill="#F5F5F7"/>
</g>
<defs>
<clipPath id="clip0_395_93">
<rect width="92.0261" height="128" fill="white"/>
</clipPath>
</defs>
</svg>
