<svg width="17" height="17" viewBox="0 0 17 17" fill="none" xmlns="http://www.w3.org/2000/svg">
<g clip-path="url(#clip0_314_169)">
<path d="M0.684104 5.5365C1.13732 5.5365 1.37676 5.27616 1.37676 4.82491V2.77692C1.37676 1.87442 1.84708 1.4145 2.70221 1.4145H4.77162C5.22485 1.4145 5.47283 1.16283 5.47283 0.711582C5.47283 0.26033 5.22485 0.0173492 4.77162 0.0173492H2.68511C0.897887 0.0173492 0 0.911175 0 2.69882V4.82491C0 5.27616 0.247988 5.5365 0.684104 5.5365ZM16.0508 5.5365C16.504 5.5365 16.7434 5.27616 16.7434 4.82491V2.69882C16.7434 0.911175 15.8455 0.0173492 14.0583 0.0173492H11.9632C11.5186 0.0173492 11.2706 0.26033 11.2706 0.711582C11.2706 1.16283 11.5186 1.4145 11.9632 1.4145H14.0327C14.8792 1.4145 15.3667 1.87442 15.3667 2.77692V4.82491C15.3667 5.27616 15.6146 5.5365 16.0508 5.5365ZM2.68511 17H4.77162C5.22485 17 5.47283 16.7484 5.47283 16.3058C5.47283 15.8546 5.22485 15.6029 4.77162 15.6029H2.70221C1.84708 15.6029 1.37676 15.1429 1.37676 14.2405V12.1924C1.37676 11.7326 1.12878 11.4809 0.684104 11.4809C0.239436 11.4809 0 11.7326 0 12.1924V14.3099C0 16.1062 0.897887 17 2.68511 17ZM11.9632 17H14.0583C15.8455 17 16.7434 16.0975 16.7434 14.3099V12.1924C16.7434 11.7326 16.4955 11.4809 16.0508 11.4809C15.6061 11.4809 15.3667 11.7326 15.3667 12.1924V14.2405C15.3667 15.1429 14.8792 15.6029 14.0327 15.6029H11.9632C11.5186 15.6029 11.2706 15.8546 11.2706 16.3058C11.2706 16.7484 11.5186 17 11.9632 17Z" fill="#6E6E73" fill-opacity="0.85"/>
<path d="M3.83954 9.242H7.42255C7.59352 9.242 7.69619 9.35478 7.69619 9.52836V13.1123C7.69619 13.8933 8.50858 13.9714 8.76507 13.4074L12.5618 5.19807C12.8697 4.52987 12.3053 3.94845 11.6383 4.26953L3.55734 8.16588C3.00151 8.42625 3.09558 9.242 3.83954 9.242Z" fill="#6E6E73" fill-opacity="0.85"/>
</g>
<defs>
<clipPath id="clip0_314_169">
<rect width="17" height="17" fill="white"/>
</clipPath>
</defs>
</svg>
