<svg width="10" height="15" viewBox="0 0 10 15" fill="none" xmlns="http://www.w3.org/2000/svg">
<path d="M1.64835 15H8.35166C9.42855 15 10 14.3884 10 13.1804V7.91284C10 6.70486 9.42855 6.10091 8.35166 6.10091H1.64835C0.571428 6.10091 0 6.70486 0 7.91284V13.1804C0 14.3884 0.571428 15 1.64835 15ZM1.28205 6.68959H2.44688V4.1055C2.44688 2.1789 3.62637 1.15443 4.99634 1.15443C6.3663 1.15443 7.56047 2.1789 7.56047 4.1055V6.68959H8.71794V4.2737C8.71794 1.39908 6.91575 0 4.99634 0C3.08425 0 1.28205 1.39908 1.28205 4.2737V6.68959Z" fill="#1D1D1F"/>
</svg>
