<svg width="78" height="77" viewBox="0 0 78 77" fill="none" xmlns="http://www.w3.org/2000/svg">
<g clip-path="url(#clip0_476_101)">
<path d="M1.13055 38.519C1.13055 17.5051 18.5391 0.0379816 39.5653 0.0379834C60.5536 0.0379852 78 17.5051 78 38.519C78 59.5703 60.5913 77 39.6029 77C18.5767 77 1.13055 59.5703 1.13055 38.519ZM45.2927 54.0245L58.4058 40.8202C59.1971 40.0279 59.4985 39.4243 59.4985 38.5567C59.4985 37.6891 59.1217 37.0098 58.4058 36.2931L45.2927 23.1264C44.7653 22.5984 44.0869 22.2964 43.2579 22.2964C41.6376 22.2964 40.4318 23.5414 40.4318 25.1636C40.4318 25.9935 40.7711 26.7105 41.2984 27.2388L46.1217 32.0298L50.8319 35.9535L42.5798 35.6515L22.4201 35.6515C20.687 35.6515 19.4812 36.8588 19.4812 38.5567C19.4812 40.2922 20.7246 41.4994 22.4201 41.4994L42.5798 41.4995L50.7942 41.1598L46.1217 45.0833L41.2984 49.8746C40.8087 50.4405 40.4318 51.1573 40.4318 51.9873C40.4318 53.6095 41.6376 54.8168 43.2579 54.8168C44.0869 54.8168 44.7653 54.5527 45.2927 54.0245Z" fill="#FFC5C5"/>
</g>
<defs>
<clipPath id="clip0_476_101">
<rect width="78" height="77" fill="white" transform="translate(78 77) rotate(-180)"/>
</clipPath>
</defs>
</svg>
