<svg width="10" height="11" viewBox="0 0 10 11" fill="none" xmlns="http://www.w3.org/2000/svg">
<path d="M10 8.17351L9.99338 0.859603C9.99338 0.349669 9.68895 0 9.21244 0H2.56122C2.11118 0 1.80013 0.371523 1.80013 0.808609C1.80013 1.23841 2.13766 1.59536 2.54136 1.59536H4.91727L7.72336 1.49338L6.51886 2.65894L0.238253 9.57947C0.0860357 9.7543 0 9.95828 0 10.1623C0 10.5921 0.357379 11 0.761085 11C0.946393 11 1.1317 10.9126 1.29054 10.745L7.57776 3.8245L8.6499 2.49868L8.53739 5.45629V8.19536C8.53739 8.64702 8.86168 9.02583 9.26539 9.02583C9.66248 9.02583 10 8.6543 10 8.17351Z" fill="#FF7278"/>
</svg>
