<svg width="99" height="128" viewBox="0 0 99 128" fill="none" xmlns="http://www.w3.org/2000/svg">
<g clip-path="url(#clip0_426_70)">
<path d="M49.9351 0H8.84517C3.96075 0 0 3.86343 0 8.62985V119.404C0 124.171 3.96075 128.034 8.84517 128.034H49.9389C54.8233 128.034 58.7841 124.171 58.7841 119.404V8.62985C58.7841 3.86343 54.8233 0 49.9389 0H49.9351ZM34.0655 28.0461C34.0655 32.2562 30.6635 35.6663 26.4633 35.6663H11.3805C7.18028 35.6663 3.7783 32.2562 3.7783 28.0461V11.617C3.7783 7.40682 7.18028 3.99678 11.3805 3.99678H26.4671C30.6673 3.99678 34.0693 7.40682 34.0693 11.617V28.0461H34.0655Z" fill="#6E6E73"/>
<path d="M50.5698 10.8016H89.1966C94.788 10.8016 99.3303 15.3547 99.3303 20.9593V118.799C99.3303 124.403 94.788 128.956 89.1966 128.956H50.5698C44.9784 128.956 40.436 124.403 40.436 118.799V20.9593C40.436 15.3547 44.9784 10.8016 50.5698 10.8016Z" fill="#6E6E73"/>
<path d="M89.1967 11.7541C94.2673 11.7541 98.3801 15.8767 98.3801 20.9593V118.799C98.3801 123.881 94.2673 128.004 89.1967 128.004H50.5699C45.4992 128.004 41.3864 123.881 41.3864 118.799V20.9593C41.3864 15.8767 45.4992 11.7541 50.5699 11.7541H89.1967ZM89.1967 9.84909H50.5699C44.4577 9.84909 39.4858 14.8327 39.4858 20.9593V118.799C39.4858 124.925 44.4577 129.909 50.5699 129.909H89.1967C95.3088 129.909 100.281 124.925 100.281 118.799V20.9593C100.281 14.8327 95.3088 9.84909 89.1967 9.84909Z" fill="#F5F5F7"/>
<path d="M62.1898 16.4939H51.2237C48.2217 16.4939 45.7881 18.9332 45.7881 21.9423V35.35C45.7881 38.3591 48.2217 40.7985 51.2237 40.7985H62.1898C65.1918 40.7985 67.6254 38.3591 67.6254 35.35V21.9423C67.6254 18.9332 65.1918 16.4939 62.1898 16.4939Z" fill="#F5F5F7"/>
<path d="M69.8834 88.1579C60.0043 88.1579 51.9688 80.1033 51.9688 70.2009C51.9688 60.2985 60.0043 52.244 69.8834 52.244C79.7624 52.244 87.7979 60.2985 87.7979 70.2009C87.7979 80.1033 79.7624 88.1579 69.8834 88.1579ZM69.8834 56.054C62.1025 56.054 55.7699 62.4017 55.7699 70.2009C55.7699 78.0002 62.1025 84.3478 69.8834 84.3478C77.6642 84.3478 83.9968 78.0002 83.9968 70.2009C83.9968 62.4017 77.6642 56.054 69.8834 56.054Z" fill="#F5F5F7"/>
<path d="M72.6656 95.7971C72.6656 94.2568 71.4199 93.0081 69.8832 93.0081C68.3466 93.0081 67.1008 94.2568 67.1008 95.7971V104.747C67.1008 106.287 68.3466 107.536 69.8832 107.536C71.4199 107.536 72.6656 106.287 72.6656 104.747V95.7971Z" fill="#F5F5F7"/>
</g>
<defs>
<clipPath id="clip0_426_70">
<rect width="98.3802" height="128" fill="white"/>
</clipPath>
</defs>
</svg>
