<svg width="32" height="31" viewBox="0 0 32 31" fill="none" xmlns="http://www.w3.org/2000/svg">
<g clip-path="url(#clip0_268_113)">
<path d="M15.7884 5.55458C16.4743 5.55458 17.0433 4.99769 17.0433 4.3123V1.24228C17.0433 0.556886 16.4743 0 15.7884 0C15.088 0 14.519 0.556886 14.519 1.24228V4.3123C14.519 4.99769 15.088 5.55458 15.7884 5.55458ZM22.9385 8.48181C23.4346 8.95302 24.2371 8.9673 24.7333 8.48181L26.9658 6.2971C27.4474 5.82589 27.4474 5.02626 26.9658 4.54076C26.4842 4.06955 25.6817 4.06955 25.1857 4.54076L22.9385 6.73975C22.457 7.22525 22.457 8.0106 22.9385 8.48181ZM25.9006 15.4928C25.9006 16.164 26.4842 16.7209 27.1701 16.7209H30.3073C30.9932 16.7209 31.5623 16.164 31.5623 15.4928C31.5623 14.8218 30.9932 14.2506 30.3073 14.2506H27.1701C26.4842 14.2506 25.9006 14.8218 25.9006 15.4928ZM22.9385 22.504C22.457 22.9894 22.457 23.7747 22.9385 24.2459L25.1857 26.4592C25.6817 26.9161 26.4842 26.9019 26.9658 26.4449C27.4474 25.9595 27.4474 25.1742 26.9658 24.7029L24.7187 22.504C24.2371 22.047 23.4346 22.047 22.9385 22.504ZM15.7884 25.4311C15.088 25.4311 14.519 25.988 14.519 26.6591V29.7435C14.519 30.4145 15.088 30.9715 15.7884 30.9715C16.4743 30.9715 17.0433 30.4145 17.0433 29.7435V26.6591C17.0433 25.988 16.4743 25.4311 15.7884 25.4311ZM8.62381 22.504C8.12768 22.047 7.31053 22.047 6.82901 22.504L4.59645 24.6886C4.11492 25.1598 4.11492 25.9452 4.58186 26.4307C5.06339 26.8876 5.88054 26.9019 6.37665 26.4449L8.60921 24.2459C9.09075 23.7747 9.09075 22.9894 8.62381 22.504ZM5.66166 15.4928C5.66166 14.8218 5.07797 14.2506 4.39216 14.2506H1.2549C0.569084 14.2506 0 14.8218 0 15.4928C0 16.164 0.569084 16.7209 1.2549 16.7209H4.39216C5.07797 16.7209 5.66166 16.164 5.66166 15.4928ZM8.60921 8.48181C9.09075 8.02488 9.09075 7.21097 8.62381 6.73975L6.39125 4.54076C5.90971 4.08383 5.09257 4.06955 4.61103 4.54076C4.12951 5.02626 4.12951 5.82589 4.59645 6.28282L6.82901 8.48181C7.31053 8.95302 8.11309 8.95302 8.60921 8.48181Z" fill="white"/>
<path d="M15.7739 22.7752C19.8304 22.7752 23.2011 19.4768 23.2011 15.4928C23.2011 11.4947 19.8304 8.19623 15.7739 8.19623C11.7173 8.19623 8.34656 11.4947 8.34656 15.4928C8.34656 19.4768 11.7173 22.7752 15.7739 22.7752ZM15.7739 20.5905C12.9284 20.5905 10.5645 18.2773 10.5645 15.4928C10.5645 12.6942 12.9284 10.3809 15.7739 10.3809C18.6192 10.3809 20.9832 12.6942 20.9832 15.4928C20.9832 18.2773 18.6192 20.5905 15.7739 20.5905Z" fill="white"/>
</g>
<defs>
<clipPath id="clip0_268_113">
<rect width="32" height="31" fill="white"/>
</clipPath>
</defs>
</svg>
