<svg width="26" height="19" viewBox="0 0 26 19" fill="none" xmlns="http://www.w3.org/2000/svg">
<g clip-path="url(#clip0_1168_315)">
<path d="M16.5704 14.0876V2.71429C16.5704 1.13021 15.7484 0.293678 14.1666 0.293678H2.4038C0.821886 0.293678 0 1.13021 0 2.71429V14.3902C0 15.9743 0.821886 16.8019 2.4038 16.8019H3.00476C2.98708 16.6862 2.97824 16.5616 2.97824 16.437C2.97824 14.4524 4.58667 12.8328 6.55744 12.8328C8.52821 12.8328 10.1278 14.4524 10.1278 16.437C10.1278 16.5616 10.119 16.6862 10.1013 16.8019H15.7308C15.7131 16.6773 15.7043 16.5527 15.7043 16.4281C15.7043 15.5204 16.0048 14.6928 16.5704 14.0876ZM17.7811 5.2061V13.2066C18.2053 12.9663 18.709 12.8239 19.2393 12.8239C21.21 12.8239 22.8538 14.4436 22.8538 16.4281C22.8538 16.5527 22.845 16.6773 22.8273 16.8019H23.3664C24.9218 16.8019 25.7348 15.9653 25.7348 14.3902V11.2487C25.7348 10.3766 25.5934 9.96723 25.1074 9.41544L22.1026 5.99814C21.5812 5.41078 20.998 5.2061 20.1319 5.2061H17.7811ZM20.07 10.8838C19.5751 10.8838 19.2658 10.5813 19.2658 10.074V6.85247H20.0435C20.45 6.85247 20.7152 6.92367 21.0598 7.30633L23.7552 10.3499C23.8966 10.5101 23.9939 10.6792 24.0292 10.8838H20.07ZM6.55744 19C7.97143 19 9.10263 17.852 9.10263 16.437C9.10263 15.022 7.96261 13.874 6.55744 13.874C5.15227 13.874 4.01223 15.022 4.01223 16.437C4.01223 17.8431 5.15227 19 6.55744 19ZM19.2746 19C20.6886 19 21.8198 17.852 21.8198 16.4281C21.8198 15.0131 20.6798 13.8651 19.2746 13.8651C17.8694 13.8651 16.7294 15.0131 16.7294 16.4281C16.7294 17.8431 17.8694 19 19.2746 19Z" fill="#1D1D1F" fill-opacity="0.85"/>
</g>
<defs>
<clipPath id="clip0_1168_315">
<rect width="26" height="19" fill="white"/>
</clipPath>
</defs>
</svg>
