<?xml version="1.0" encoding="UTF-8"?>
<svg id="Capa_1" data-name="Capa 1" xmlns="http://www.w3.org/2000/svg" viewBox="0 0 50.03 35.68">
  <defs>
    <style>
      .cls-1 {
        fill: #ffde5a;
        stroke-width: 0px;
      }
    </style>
  </defs>
  <path class="cls-1" d="M19.48,6.52c-.22-1.13-1.35-2.08-3.5-2.08-5.13,0-9.98,5.57-9.98,12.34,0,5.5,3.09,8.88,7.97,8.88s9.61-3.28,12.34-8.81c.69.04,1.71.58,2.08,1.02-3.09,6.77-8.52,12.27-16.31,12.27-7.25,0-12.09-4.99-12.09-12.74C0,8.78,6.08,0,15.48,0c6.48,0,9.32,4.11,9.32,7.68,0,2.51-1.42,4.92-3.97,4.92-1.75,0-3.17-1.42-3.17-3.2,0-1.27.73-2.37,1.82-2.88Z"/>
  <path class="cls-1" d="M20.5,35.68l8.3-27.13h5.32l-.58,1.89c1.31-1.2,3.13-2.22,5.13-2.22,3.06,0,5.83,2.18,5.83,6.85,0,2-.51,4.04-1.38,5.9,2.18-.51,3.82-2.04,4.84-4.11.69.04,1.71.58,2.08,1.02-1.82,3.97-4.66,5.79-8.63,5.83-1.78,2.26-4.15,3.75-6.74,3.75s-4.37-1.35-5.13-3.9l-3.71,12.13h-5.32ZM35.68,22.21c-2.33-1.49-3.57-3.93-3.57-6.37v-.07c-.66,1.2-1.06,2.55-1.06,3.79,0,2.15,1.27,3.24,2.73,3.24.66,0,1.27-.22,1.89-.58ZM37.54,20.39c.98-1.35,1.6-3.13,1.6-4.77,0-1.97-.87-3.17-2.37-3.17s-2.4,1.2-2.4,3.17c0,2.4,1.38,3.93,3.17,4.77Z"/>
</svg>