<svg width="26" height="30" viewBox="0 0 26 30" fill="none" xmlns="http://www.w3.org/2000/svg">
<g clip-path="url(#clip0_26_66)">
<path d="M6.88398 20.1751C6.49993 20.837 6.1514 21.4503 5.79399 22.0571C5.44546 22.6462 5.10802 22.7389 4.51308 22.3991C3.19887 21.6489 1.88688 20.8943 0.577115 20.1353C-0.0600091 19.7669 -0.146587 19.4558 0.210824 18.8402C3.74942 12.744 7.29023 6.64781 10.8333 0.553814C11.1907 -0.0617628 11.5259 -0.145605 12.1475 0.209621C13.4484 0.953167 14.747 1.69671 16.0457 2.44688C16.6873 2.81755 16.7716 3.13747 16.4009 3.78835C16.059 4.38848 15.7105 4.9842 15.342 5.62405C16.5896 6.34112 17.8261 7.05378 19.1092 7.79071C19.4755 7.1663 19.8285 6.56176 20.1837 5.95721C20.5655 5.30854 20.8719 5.22028 21.5312 5.59537C22.8187 6.32788 24.1019 7.06922 25.3872 7.80836C26.0754 8.2033 26.1575 8.49233 25.7646 9.17189C24.1707 11.9232 22.5768 14.6746 20.9673 17.4171C20.7964 17.7105 20.803 17.887 21.0161 18.1606C24.366 22.4653 22.2749 28.5438 16.9559 29.7992C12.8934 30.759 9.01513 28.1665 8.15823 24.2326C7.94733 23.2662 7.94511 22.2888 8.14269 21.318C8.19597 21.051 8.17821 20.8745 7.89627 20.7443C7.56328 20.5921 7.25471 20.3847 6.8862 20.1751H6.88398ZM11.8589 1.75408C11.1463 2.98303 10.4648 4.15682 9.76769 5.35929C10.3937 5.72113 10.9998 6.02782 11.5503 6.41172C11.7656 6.56176 11.9721 6.88609 11.9765 7.13541C11.9854 7.68921 11.4038 7.98045 10.8932 7.71128C10.2694 7.38253 9.66557 7.02068 9.01513 6.65222C6.59317 10.8223 4.19341 14.9526 1.77367 19.116C2.79484 19.7007 3.77828 20.2633 4.78169 20.837C5.16352 20.1751 5.50317 19.5771 5.85171 18.9814C6.20912 18.3747 6.56209 18.282 7.17257 18.6262C7.68538 18.9152 8.19597 19.2087 8.72431 19.5109C9.80543 17.5296 11.366 16.1992 13.5483 15.663C15.7238 15.1269 17.7306 15.5505 19.6176 16.7971C20.2148 15.7711 20.7897 14.7783 21.3913 13.7479C20.7986 13.4081 20.2436 13.0926 19.6908 12.7705C19.1581 12.4616 19.0204 12.1042 19.2535 11.6739C19.4733 11.2679 19.9017 11.1951 20.4234 11.4864C20.9829 11.7975 21.5401 12.1152 22.1417 12.455C22.8454 11.2459 23.5291 10.0699 24.2351 8.85638C23.2317 8.28052 22.246 7.71789 21.2315 7.13541C20.8474 7.7907 20.4967 8.40187 20.1371 9.00641C19.793 9.58669 19.44 9.68598 18.8539 9.35281C17.2733 8.45041 15.6949 7.54359 14.1188 6.63236C13.5216 6.28596 13.4328 5.95501 13.768 5.3659C14.1254 4.7415 14.4895 4.12151 14.8625 3.47725C13.8546 2.89918 12.8801 2.33877 11.8611 1.75408H11.8589ZM9.50796 22.7058C9.50796 25.9226 12.0787 28.4931 15.302 28.4975C18.5209 28.5019 21.1449 25.9182 21.1493 22.7433C21.1538 19.5242 18.5476 16.9251 15.3153 16.9251C12.0964 16.9251 9.51017 19.4999 9.51017 22.708L9.50796 22.7058Z" fill="black"/>
<path d="M13.9546 7.83704C14.0234 7.86351 14.2077 7.91647 14.3719 8.00913C15.4242 8.60265 16.472 9.20057 17.5154 9.80512C18.0459 10.1118 18.1769 10.4825 17.9283 10.9061C17.6863 11.3187 17.2756 11.3827 16.7539 11.0848C15.6773 10.4692 14.605 9.85145 13.5306 9.23367C13.2065 9.04833 13.0111 8.78136 13.1354 8.39966C13.2398 8.07753 13.4418 7.83262 13.9546 7.83924V7.83704Z" fill="black"/>
<path d="M14.4097 23.8928C15.0734 23.0014 15.6928 22.1652 16.3144 21.3312C16.6296 20.9054 16.9382 20.4751 17.2667 20.0581C17.5709 19.6698 17.9793 19.5926 18.319 19.8331C18.6942 20.0978 18.7586 20.5038 18.4522 20.923C17.3511 22.4255 16.2434 23.9215 15.1267 25.4108C14.8359 25.7991 14.3453 25.8366 13.9879 25.4968C13.3818 24.9209 12.7891 24.3296 12.2075 23.7295C11.8789 23.3875 11.8945 23.0146 12.1986 22.7035C12.5072 22.388 12.9245 22.377 13.2686 22.7102C13.6482 23.0764 14.0034 23.4714 14.4097 23.8928Z" fill="black"/>
</g>
<defs>
<clipPath id="clip0_26_66">
<rect width="26" height="30" fill="white"/>
</clipPath>
</defs>
</svg>
