<svg width="110" height="48" viewBox="0 0 110 48" fill="none" xmlns="http://www.w3.org/2000/svg">
<path d="M18.75 47.6766C12.2812 47.6766 6.9375 44.7263 3.78125 39.3278C1.28125 35.4987 0 30.3827 0 24.3565C0 9.35375 7.25 0.314453 18.9062 0.314453C27.5 0.314453 34.2188 5.43045 35.4688 12.8377H26.1875C25.2812 9.82455 22.375 7.81582 18.8438 7.81582C12.5625 7.81582 8.75 13.8734 8.96875 24.1054H9.15625C10.9688 19.6799 15.4062 16.7296 21.1562 16.7296C29.7188 16.7296 36.0625 23.0696 36.0625 31.6695C36.0625 40.9913 28.8438 47.6766 18.75 47.6766ZM18.6562 40.1125C23.25 40.1125 26.875 36.503 26.875 31.952C26.875 27.2754 23.4062 23.8543 18.6875 23.8543C14 23.8543 10.4375 27.2754 10.4375 31.8578C10.4375 36.4717 14.0312 40.1125 18.6562 40.1125Z" fill="#1D1D1F"/>
<path d="M46.8438 47.0175C44.0312 47.0175 41.8125 44.7577 41.8125 41.9643C41.8125 39.1395 44.0312 36.9111 46.8438 36.9111C49.625 36.9111 51.875 39.1395 51.875 41.9643C51.875 44.7577 49.625 47.0175 46.8438 47.0175Z" fill="#1D1D1F"/>
<path d="M66.9062 46.6409V10.0443H66.7188L55.2188 18.0164V9.4793L66.875 1.35021H76.25V46.6409H66.9062Z" fill="#1D1D1F"/>
<path d="M91.5625 19.0208H84.7188L87.0625 1.35021H95.75L91.5625 19.0208ZM105.344 19.0208H98.5312L101.188 1.35021H109.844L105.344 19.0208Z" fill="#1D1D1F"/>
</svg>
